<?xml version="1.0" standalone="no"?>
<!DOCTYPE svg PUBLIC "-//W3C//DTD SVG 20010904//EN"
 "http://www.w3.org/TR/2001/REC-SVG-20010904/DTD/svg10.dtd">
<svg version="1.0" xmlns="http://www.w3.org/2000/svg"
 width="1000.000000pt" height="1000.000000pt" viewBox="0 0 1000.000000 1000.000000"
 preserveAspectRatio="xMidYMid meet">

<g transform="translate(0.000000,1000.000000) scale(0.100000,-0.100000)"
fill="#000000" stroke="none">
<path d="M0 5000 l0 -5000 5000 0 5000 0 0 5000 0 5000 -5000 0 -5000 0 0
-5000z m7115 1271 c72 -5 182 -12 245 -16 63 -3 178 -12 255 -20 77 -8 172
-17 210 -20 285 -24 662 -122 673 -177 3 -13 -7 -13 -85 -2 -194 28 -495 44
-773 40 -250 -3 -430 -13 -430 -23 0 -2 12 -22 27 -44 l27 -41 61 6 c108 12
338 26 438 26 71 0 97 -3 97 -12 0 -9 3 -9 9 1 7 11 61 13 315 9 168 -3 309
-1 313 3 9 9 46 -40 304 -399 95 -134 190 -265 209 -292 19 -26 75 -104 125
-173 l89 -125 87 -7 c49 -4 125 -8 171 -10 46 -2 86 -3 90 -4 7 -1 27 -53 66
-166 20 -59 49 -242 75 -485 12 -104 12 -153 1 -294 -7 -93 -18 -174 -23 -179
-6 -6 -11 -23 -11 -38 0 -36 -10 -42 -120 -77 -146 -45 -146 -45 -167 -19 -27
35 -56 47 -108 47 -49 0 -66 -12 -133 -94 -41 -49 -35 -21 17 75 72 136 81
176 81 350 0 354 -54 564 -205 800 -24 36 -46 75 -49 87 -4 11 -12 25 -19 30
-9 8 -11 -6 -9 -61 4 -77 -11 -175 -34 -219 -13 -26 -13 -28 3 -28 10 0 51 9
91 20 39 11 74 20 77 20 11 0 35 -64 70 -185 34 -121 37 -145 47 -348 14 -263
6 -308 -75 -460 -74 -138 -96 -158 -199 -180 -45 -10 -112 -28 -148 -39 -58
-18 -215 -64 -445 -133 -44 -13 -80 -23 -81 -22 -1 1 11 56 27 122 16 66 35
161 44 210 9 50 20 113 25 140 60 319 66 585 17 706 -15 36 -27 68 -27 72 0 3
12 8 28 10 19 3 14 4 -15 6 -49 1 -51 -4 -23 -59 54 -106 64 -292 29 -525 -34
-231 -77 -463 -106 -580 l-28 -110 -50 -13 c-73 -19 -137 -38 -255 -73 -109
-32 -358 -102 -515 -144 -49 -13 -100 -27 -111 -30 -17 -5 -26 1 -42 27 -12
18 -50 59 -85 90 -48 43 -66 66 -71 91 -4 19 -24 62 -45 95 -79 122 -164 144
-280 73 -106 -65 -167 -136 -250 -292 l-20 -36 -103 -6 c-57 -3 -243 -31 -413
-61 -447 -80 -499 -86 -807 -86 -146 0 -273 3 -282 6 -45 17 1 24 167 24 149
0 187 3 205 16 12 8 27 12 32 9 6 -3 13 0 16 8 4 11 12 8 34 -14 20 -21 38
-29 62 -29 42 0 238 27 264 36 60 22 67 68 33 194 -11 41 -31 116 -44 165 -13
50 -28 101 -33 115 l-9 25 -22 -35 c-23 -36 -24 -67 -5 -221 5 -42 3 -48 -21
-68 -35 -27 -69 -27 -96 0 -20 20 -21 28 -14 114 6 82 4 97 -14 133 -11 22
-26 44 -32 47 -6 4 -14 17 -19 29 -7 20 -8 20 -15 -6 -8 -31 -25 -38 -25 -10
0 41 -7 42 -440 42 -351 0 -419 -2 -437 -15 -21 -15 -39 -70 -48 -150 -3 -22
-9 -62 -14 -90 -6 -27 -15 -81 -21 -120 -6 -38 -13 -80 -16 -93 -3 -16 4 -32
25 -52 l29 -30 172 0 c125 0 169 -3 164 -11 -5 -9 -209 -10 -783 -5 -427 3
-848 8 -936 11 -175 6 -1698 27 -1835 25 -62 -1 -90 3 -105 14 -18 14 -1 15
180 16 139 0 207 4 225 13 39 20 68 72 74 135 3 31 13 93 21 137 16 85 8 236
-13 257 -15 15 -830 13 -848 -3 -20 -16 -40 -92 -64 -242 -11 -70 -25 -139
-30 -153 -16 -42 -11 -81 14 -111 l24 -28 164 -5 c141 -4 159 -7 135 -18 -20
-8 -100 -12 -275 -12 -136 0 -265 -5 -286 -10 l-39 -9 6 102 c9 155 34 302 76
449 34 117 37 135 25 153 -23 32 -18 88 10 114 28 27 106 64 174 85 26 7 111
39 189 70 78 30 172 63 210 73 37 9 113 34 168 56 91 36 291 109 390 142 22 7
110 41 195 75 85 33 205 78 265 99 61 22 153 55 207 74 99 36 204 50 230 31 8
-6 39 -8 78 -4 l65 7 -63 1 -62 2 6 28 c15 61 48 131 98 207 65 97 74 114 80
150 6 31 0 22 133 197 233 304 394 494 412 490 7 -1 10 2 6 8 -3 6 42 62 102
126 59 63 109 123 111 134 9 53 205 140 422 186 14 3 86 19 160 35 74 17 144
32 154 35 60 12 429 49 737 73 347 28 370 29 1169 30 448 0 874 -3 945 -8z
m1809 -2938 c-20 -54 -49 -136 -65 -182 -16 -46 -36 -95 -44 -107 -8 -13 -15
-34 -15 -46 0 -21 -15 -27 -193 -77 -105 -30 -240 -70 -300 -89 -59 -20 -109
-33 -111 -31 -17 16 32 410 53 431 4 4 27 12 51 17 43 8 91 21 210 56 30 9 84
25 120 35 36 10 119 34 185 53 66 20 126 36 132 36 8 1 0 -33 -23 -96z m-707
-127 c-14 -35 -29 -143 -40 -275 l-12 -143 -300 -103 c-165 -56 -325 -112
-355 -124 -30 -11 -60 -21 -66 -21 -8 0 -13 39 -16 118 -4 99 -10 131 -37 210
-18 52 -29 97 -25 102 9 8 117 41 294 89 93 25 315 90 485 141 75 23 78 23 72
6z m-5097 -581 c245 -3 488 -8 540 -11 l95 -7 0 -126 -1 -127 -34 -33 -35 -34
-595 8 c-327 4 -728 10 -890 13 l-295 7 -47 35 -47 35 0 91 c-1 50 -4 105 -7
122 -5 26 -3 31 17 35 24 4 502 1 1299 -8z"/>
<path d="M5030 6080 l-175 -6 150 -2 c83 -1 174 -5 204 -9 44 -5 53 -4 46 7
-7 11 73 12 456 9 255 -3 390 -2 299 2 -194 7 -731 7 -980 -1z"/>
<path d="M6262 6083 c48 -2 129 -2 180 0 51 1 12 3 -87 3 -99 0 -141 -2 -93
-3z"/>
<path d="M6546 6073 c5 -5 99 -6 209 -3 l200 6 -209 2 c-116 1 -206 -1 -200
-5z"/>
<path d="M4771 6066 c10 -8 89 -13 83 -5 -3 5 -24 9 -46 9 -23 0 -39 -2 -37
-4z"/>
<path d="M6967 6063 c-3 -5 32 -7 76 -5 147 5 164 8 45 10 -64 1 -119 -1 -121
-5z"/>
<path d="M4515 6053 c121 -7 243 -7 238 0 -2 4 -68 6 -146 5 -78 -1 -119 -3
-92 -5z"/>
<path d="M4378 6043 c12 -2 30 -2 40 0 9 3 -1 5 -23 4 -22 0 -30 -2 -17 -4z"/>
<path d="M4240 6034 c35 -7 98 -9 94 -2 -3 5 -29 7 -57 7 -29 -1 -45 -3 -37
-5z"/>
<path d="M4035 6024 c71 -8 165 -8 165 -1 0 4 -44 6 -97 5 -54 0 -84 -3 -68
-4z"/>
<path d="M3921 6016 c11 -9 90 -16 84 -6 -3 5 -25 10 -47 10 -23 0 -39 -2 -37
-4z"/>
<path d="M3878 6003 c6 -2 18 -2 25 0 6 3 1 5 -13 5 -14 0 -19 -2 -12 -5z"/>
<path d="M3730 5991 c-22 -6 -23 -8 -7 -14 27 -10 39 -9 31 4 -4 8 12 10 54 7
33 -1 58 0 55 5 -5 9 -99 8 -133 -2z"/>
<path d="M3652 5971 c-11 -7 -11 -9 1 -14 20 -8 58 3 51 14 -7 11 -35 11 -52
0z"/>
<path d="M7353 5915 c0 -22 2 -30 4 -17 2 12 2 30 0 40 -3 9 -5 -1 -4 -23z"/>
<path d="M7294 5800 c0 -69 1 -97 3 -62 2 34 2 90 0 125 -2 34 -3 6 -3 -63z"/>
<path d="M7343 5805 c0 -33 2 -45 4 -27 2 18 2 45 0 60 -2 15 -4 0 -4 -33z"/>
<path d="M7333 5690 c0 -25 2 -35 4 -22 2 12 2 32 0 45 -2 12 -4 2 -4 -23z"/>
<path d="M7283 5620 c0 -25 2 -35 4 -22 2 12 2 32 0 45 -2 12 -4 2 -4 -23z"/>
<path d="M7323 5590 c0 -25 2 -35 4 -22 2 12 2 32 0 45 -2 12 -4 2 -4 -23z"/>
<path d="M7273 5505 c0 -22 2 -30 4 -17 2 12 2 30 0 40 -3 9 -5 -1 -4 -23z"/>
<path d="M7312 5500 c0 -19 2 -27 5 -17 2 9 2 25 0 35 -3 9 -5 1 -5 -18z"/>
<path d="M7297 5361 c-4 -46 -6 -86 -3 -88 6 -7 19 119 14 148 -2 13 -7 -14
-11 -60z"/>
<path d="M8051 5374 c0 -11 3 -14 6 -6 3 7 2 16 -1 19 -3 4 -6 -2 -5 -13z"/>
<path d="M7251 5364 c0 -11 3 -14 6 -6 3 7 2 16 -1 19 -3 4 -6 -2 -5 -13z"/>
<path d="M7242 5290 c0 -14 2 -19 5 -12 2 6 2 18 0 25 -3 6 -5 1 -5 -13z"/>
<path d="M7281 5239 c0 -15 -3 -42 -6 -60 l-5 -34 11 34 c5 18 8 45 6 60 l-4
26 -2 -26z"/>
<path d="M8091 5234 c0 -11 3 -14 6 -6 3 7 2 16 -1 19 -3 4 -6 -2 -5 -13z"/>
<path d="M7263 5105 c0 -22 2 -30 4 -17 2 12 2 30 0 40 -3 9 -5 -1 -4 -23z"/>
<path d="M7690 5109 c-30 -5 -102 -16 -160 -25 -149 -23 -211 -41 -242 -71
-15 -15 -31 -23 -35 -20 -6 7 -26 -45 -60 -158 l-17 -60 -7 40 -6 40 -2 -51
c-2 -74 -16 -104 -69 -146 -40 -33 -55 -38 -102 -40 l-55 -1 50 -6 c31 -4 45
-9 38 -14 -18 -12 -16 -44 3 -51 9 -4 31 -4 49 0 32 6 33 5 38 -38 3 -23 6
-252 7 -507 0 -256 3 -467 5 -470 3 -2 7 -2 9 0 3 3 6 233 7 512 2 455 4 507
18 511 9 2 61 7 116 11 55 3 129 10 165 15 36 6 159 17 273 25 115 8 217 20
227 25 11 6 79 15 152 21 73 6 139 17 146 23 10 10 10 20 -2 52 l-15 39 0 -41
-1 -41 -67 -6 c-38 -4 -92 -7 -122 -7 -29 0 -81 -4 -115 -10 -111 -18 -262
-40 -270 -40 -4 0 -4 5 -1 10 3 6 14 10 24 10 35 0 160 71 205 116 60 61 116
169 116 223 0 59 -32 116 -71 130 -37 13 -149 13 -229 0z"/>
<path d="M7201 5044 c0 -11 3 -14 6 -6 3 7 2 16 -1 19 -3 4 -6 -2 -5 -13z"/>
<path d="M7252 5035 c0 -16 2 -22 5 -12 2 9 2 23 0 30 -3 6 -5 -1 -5 -18z"/>
<path d="M7191 4984 c0 -11 3 -14 6 -6 3 7 2 16 -1 19 -3 4 -6 -2 -5 -13z"/>
<path d="M8171 4944 c0 -11 3 -14 6 -6 3 7 2 16 -1 19 -3 4 -6 -2 -5 -13z"/>
<path d="M3975 4850 c-121 -4 -272 -13 -335 -19 -63 -7 -198 -21 -300 -31
-102 -11 -227 -24 -278 -29 -65 -6 -99 -14 -110 -25 -16 -16 -16 -18 3 -33 17
-12 42 -14 155 -9 74 4 167 11 205 16 39 5 115 14 170 19 55 6 145 15 200 21
430 45 670 33 683 -33 3 -14 -12 -17 -110 -20 l-113 -3 117 -2 c65 -1 120 -6
123 -12 9 -15 85 -12 91 3 3 8 -2 33 -10 57 -16 48 -14 60 13 60 20 0 41 19
41 37 0 15 -147 15 -545 3z"/>
<path d="M4887 4852 c-25 -5 -28 -31 -7 -52 18 -18 33 -20 183 -19 89 0 212 4
273 7 121 8 504 -1 571 -12 30 -6 53 -19 78 -44 l36 -37 -33 -6 c-32 -6 -32
-6 8 -8 23 0 47 -8 54 -16 16 -19 69 -20 76 0 3 8 -1 28 -10 45 -8 17 -12 38
-9 45 5 16 18 15 148 -7 55 -9 61 -8 77 12 41 51 19 58 -218 71 -193 11 -1191
28 -1227 21z"/>
<path d="M8211 4794 c0 -11 3 -14 6 -6 3 7 2 16 -1 19 -3 4 -6 -2 -5 -13z"/>
<path d="M4758 4713 c67 -2 177 -2 245 0 67 1 12 3 -123 3 -135 0 -190 -2
-122 -3z"/>
<path d="M8888 4713 c7 -3 16 -2 19 1 4 3 -2 6 -13 5 -11 0 -14 -3 -6 -6z"/>
<path d="M5228 4703 c34 -2 88 -2 120 0 31 2 3 3 -63 3 -66 0 -92 -1 -57 -3z"/>
<path d="M3868 4693 c34 -2 90 -2 125 0 34 2 6 3 -63 3 -69 0 -97 -1 -62 -3z"/>
<path d="M5568 4693 c61 -2 163 -2 225 0 61 1 11 3 -113 3 -124 0 -174 -2
-112 -3z"/>
<path d="M3728 4683 c12 -2 30 -2 40 0 9 3 -1 5 -23 4 -22 0 -30 -2 -17 -4z"/>
<path d="M3638 4673 c6 -2 18 -2 25 0 6 3 1 5 -13 5 -14 0 -19 -2 -12 -5z"/>
<path d="M8588 4673 c6 -2 18 -2 25 0 6 3 1 5 -13 5 -14 0 -19 -2 -12 -5z"/>
<path d="M3468 4663 c18 -2 45 -2 60 0 15 2 0 4 -33 4 -33 0 -45 -2 -27 -4z"/>
<path d="M6253 4663 c15 -2 39 -2 55 0 15 2 2 4 -28 4 -30 0 -43 -2 -27 -4z"/>
<path d="M8493 4663 c9 -2 25 -2 35 0 9 3 1 5 -18 5 -19 0 -27 -2 -17 -5z"/>
<path d="M6383 4653 c9 -2 23 -2 30 0 6 3 -1 5 -18 5 -16 0 -22 -2 -12 -5z"/>
<path d="M3228 4643 c7 -3 16 -2 19 1 4 3 -2 6 -13 5 -11 0 -14 -3 -6 -6z"/>
<path d="M6503 4643 c15 -2 37 -2 50 0 12 2 0 4 -28 4 -27 0 -38 -2 -22 -4z"/>
<path d="M6668 4633 c23 -2 59 -2 80 0 20 2 1 4 -43 4 -44 0 -61 -2 -37 -4z"/>
<path d="M6828 4623 c12 -2 30 -2 40 0 9 3 -1 5 -23 4 -22 0 -30 -2 -17 -4z"/>
<path d="M8887 4606 c-67 -13 -125 -29 -134 -38 -14 -15 -14 -20 2 -62 27 -70
19 -69 218 -35 90 15 98 23 81 90 -12 46 -28 70 -44 68 -3 -1 -58 -11 -123
-23z"/>
<path d="M3038 4613 c7 -3 16 -2 19 1 4 3 -2 6 -13 5 -11 0 -14 -3 -6 -6z"/>
<path d="M2953 4603 c9 -2 23 -2 30 0 6 3 -1 5 -18 5 -16 0 -22 -2 -12 -5z"/>
<path d="M2858 4593 c6 -2 18 -2 25 0 6 3 1 5 -13 5 -14 0 -19 -2 -12 -5z"/>
<path d="M2768 4583 c7 -3 16 -2 19 1 4 3 -2 6 -13 5 -11 0 -14 -3 -6 -6z"/>
<path d="M8097 4515 c-154 -26 -163 -33 -141 -97 24 -71 26 -72 161 -54 180
25 181 26 163 83 -4 15 -11 40 -14 54 -3 15 -14 29 -23 31 -10 2 -76 -5 -146
-17z"/>
<path d="M1810 3542 c0 -12 15 -32 35 -48 40 -30 43 -44 15 -69 -44 -40 -29
-45 128 -45 81 0 197 -2 257 -5 61 -3 391 -12 735 -20 344 -9 733 -20 865 -25
182 -6 241 -6 247 3 4 7 15 45 25 85 14 59 14 75 4 81 -7 5 -151 11 -319 15
-409 9 -1436 34 -1744 42 -246 7 -248 6 -248 -14z"/>
<path d="M1783 3334 c-5 -13 4 -26 30 -49 42 -36 46 -54 17 -80 -11 -10 -20
-21 -20 -25 0 -4 134 -11 298 -14 163 -4 331 -9 372 -11 41 -2 201 -7 355 -10
154 -3 325 -8 380 -10 105 -5 634 -18 769 -19 l80 -1 17 56 c9 30 19 68 21 84
3 28 1 30 -42 36 -25 4 -288 12 -585 18 -805 17 -1319 30 -1512 37 -160 5
-173 4 -180 -12z"/>
</g>
</svg>
