<?xml version="1.0" standalone="no"?>
<!DOCTYPE svg PUBLIC "-//W3C//DTD SVG 20010904//EN"
 "http://www.w3.org/TR/2001/REC-SVG-20010904/DTD/svg10.dtd">
<svg version="1.0" xmlns="http://www.w3.org/2000/svg"
 width="96.000000pt" height="96.000000pt" viewBox="0 0 96.000000 96.000000"
 preserveAspectRatio="xMidYMid meet">

<g transform="translate(0.000000,96.000000) scale(0.100000,-0.100000)"
fill="#000000" stroke="none">
<path d="M0 480 l0 -480 480 0 480 0 0 480 0 480 -480 0 -480 0 0 -480z m792
111 c13 -5 40 -32 59 -59 19 -28 43 -52 54 -54 17 -3 20 -12 23 -59 3 -55 2
-57 -25 -62 -15 -3 -66 -17 -112 -31 l-85 -26 -23 22 -23 21 -23 -21 c-24 -23
-87 -31 -87 -11 0 5 -5 7 -12 3 -8 -5 -9 -2 -5 9 5 15 -1 17 -48 17 -50 0 -55
-2 -61 -25 l-6 -25 -135 0 -135 0 7 30 c7 30 6 30 -39 30 -44 0 -46 -1 -46
-30 0 -20 -5 -30 -15 -30 -17 0 -19 27 -6 63 8 19 29 31 105 58 70 25 98 40
105 56 18 40 93 113 125 122 41 12 378 14 408 2z m68 -269 c0 -19 -28 -41 -74
-56 -63 -21 -76 -20 -76 3 0 14 16 23 68 39 80 24 82 24 82 14z m-500 -87 c0
-22 -162 -22 -180 0 -11 13 -1 15 84 15 79 0 96 -3 96 -15z"/>
<path d="M708 573 c7 -3 16 -2 19 1 4 3 -2 6 -13 5 -11 0 -14 -3 -6 -6z"/>
<path d="M704 482 c-6 -4 -13 -15 -17 -24 -5 -15 -1 -18 22 -18 28 0 67 31 54
43 -9 9 -45 9 -59 -1z"/>
<path d="M405 460 c3 -5 10 -10 16 -10 5 0 9 5 9 10 0 6 -7 10 -16 10 -8 0
-12 -4 -9 -10z"/>
<path d="M483 463 c9 -2 23 -2 30 0 6 3 -1 5 -18 5 -16 0 -22 -2 -12 -5z"/>
<path d="M303 453 c9 -2 23 -2 30 0 6 3 -1 5 -18 5 -16 0 -22 -2 -12 -5z"/>
<path d="M848 433 c7 -3 16 -2 19 1 4 3 -2 6 -13 5 -11 0 -14 -3 -6 -6z"/>
<path d="M768 423 c7 -3 16 -2 19 1 4 3 -2 6 -13 5 -11 0 -14 -3 -6 -6z"/>
<path d="M177 325 c-9 -21 -3 -22 111 -24 97 -2 102 -2 102 18 0 20 -5 21
-104 21 -82 0 -105 -3 -109 -15z"/>
</g>
</svg>
