<?xml version="1.0" encoding="UTF-8"?>
<svg xmlns="http://www.w3.org/2000/svg" xmlns:xlink="http://www.w3.org/1999/xlink" width="96pt" height="96pt" viewBox="0 0 96 96" version="1.1">
<defs>
<clipPath id="clip1">
  <path d="M 20 22.800781 L 76 22.800781 L 76 73.199219 L 20 73.199219 Z M 20 22.800781 "/>
</clipPath>
<linearGradient id="linear0" gradientUnits="userSpaceOnUse" x1="90.4202" y1="309.58" x2="309.58" y2="90.42" gradientTransform="matrix(0.24,0,0,0.24,0,0)">
<stop offset="0" style="stop-color:rgb(60%,27.058824%,100%);stop-opacity:1;"/>
<stop offset="0.2" style="stop-color:rgb(47.45098%,38.431373%,90.588235%);stop-opacity:1;"/>
<stop offset="1" style="stop-color:rgb(0%,81.960784%,54.901961%);stop-opacity:1;"/>
</linearGradient>
</defs>
<g id="surface1">
<path style=" stroke:none;fill-rule:nonzero;fill:rgb(0%,0%,0%);fill-opacity:1;" d="M 96 48 C 96 74.507812 74.507812 96 48 96 C 21.492188 96 0 74.507812 0 48 C 0 21.492188 21.492188 0 48 0 C 74.507812 0 96 21.492188 96 48 Z M 96 48 "/>
<g clip-path="url(#clip1)" clip-rule="nonzero">
<path style=" stroke:none;fill-rule:evenodd;fill:url(#linear0);" d="M 29.621094 61.230469 C 29.800781 61.03125 30.023438 60.875 30.265625 60.765625 C 30.511719 60.65625 30.777344 60.601562 31.046875 60.601562 L 75.035156 60.636719 C 75.222656 60.636719 75.402344 60.691406 75.5625 60.792969 C 75.71875 60.894531 75.839844 61.042969 75.917969 61.214844 C 75.992188 61.386719 76.015625 61.574219 75.984375 61.757812 C 75.957031 61.945312 75.871094 62.117188 75.746094 62.253906 L 66.378906 72.570312 C 66.199219 72.765625 65.976562 72.925781 65.734375 73.035156 C 65.488281 73.144531 65.222656 73.199219 64.953125 73.199219 L 20.964844 73.164062 C 20.777344 73.164062 20.597656 73.109375 20.4375 73.007812 C 20.28125 72.902344 20.160156 72.757812 20.082031 72.585938 C 20.007812 72.414062 19.984375 72.226562 20.015625 72.039062 C 20.042969 71.855469 20.128906 71.683594 20.253906 71.546875 Z M 75.746094 52.644531 C 75.871094 52.785156 75.957031 52.957031 75.984375 53.140625 C 76.015625 53.324219 75.992188 53.515625 75.917969 53.6875 C 75.839844 53.859375 75.71875 54.003906 75.5625 54.105469 C 75.402344 54.207031 75.222656 54.261719 75.035156 54.265625 L 31.046875 54.300781 C 30.777344 54.300781 30.511719 54.242188 30.269531 54.136719 C 30.023438 54.027344 29.800781 53.867188 29.621094 53.667969 L 20.253906 43.347656 C 20.128906 43.210938 20.042969 43.039062 20.015625 42.851562 C 19.984375 42.667969 20.007812 42.480469 20.082031 42.308594 C 20.160156 42.136719 20.28125 41.988281 20.4375 41.886719 C 20.597656 41.785156 20.777344 41.730469 20.964844 41.730469 L 64.953125 41.695312 C 65.222656 41.695312 65.488281 41.75 65.734375 41.859375 C 65.980469 41.96875 66.199219 42.125 66.378906 42.324219 Z M 29.621094 23.429688 C 29.800781 23.234375 30.023438 23.074219 30.265625 22.964844 C 30.511719 22.855469 30.777344 22.800781 31.046875 22.800781 L 75.035156 22.835938 C 75.222656 22.835938 75.402344 22.890625 75.5625 22.992188 C 75.71875 23.097656 75.839844 23.242188 75.917969 23.414062 C 75.992188 23.585938 76.015625 23.773438 75.984375 23.960938 C 75.957031 24.144531 75.871094 24.316406 75.746094 24.453125 L 66.378906 34.769531 C 66.199219 34.96875 65.976562 35.125 65.734375 35.234375 C 65.488281 35.34375 65.222656 35.398438 64.953125 35.398438 L 20.964844 35.363281 C 20.777344 35.363281 20.597656 35.308594 20.4375 35.207031 C 20.28125 35.105469 20.160156 34.957031 20.082031 34.785156 C 20.007812 34.613281 19.984375 34.425781 20.015625 34.242188 C 20.042969 34.054688 20.128906 33.882812 20.253906 33.746094 Z M 29.621094 23.429688 "/>
</g>
</g>
</svg>
